<?xml version="1.0" standalone="no"?>
<!DOCTYPE svg PUBLIC "-//W3C//DTD SVG 1.1//EN" "http://www.w3.org/Graphics/SVG/1.1/DTD/svg11.dtd" >
<svg xmlns="http://www.w3.org/2000/svg">
<metadata></metadata>
<defs>
<font id="helveticaneue_lt_35_thinRg" horiz-adv-x="1139" >
<font-face units-per-em="2048" ascent="1638" descent="-410" />
<missing-glyph horiz-adv-x="569" />
<glyph horiz-adv-x="2048" />
<glyph horiz-adv-x="2048" />
<glyph unicode="&#xd;" horiz-adv-x="569" />
<glyph unicode=" "  horiz-adv-x="569" />
<glyph unicode="&#x09;" horiz-adv-x="569" />
<glyph unicode="&#xa0;" horiz-adv-x="569" />
<glyph unicode="!" horiz-adv-x="530" d="M213 0h104v211h-104v-211zM217 969l25 -594h49l24 594v493h-98v-493z" />
<glyph unicode="&#x22;" horiz-adv-x="645" d="M164 993h78v469h-78v-469zM403 993h78v469h-78v-469z" />
<glyph unicode="#" d="M61 473h240l-65 -473h67l66 473h346l-66 -473h68l65 473h238v68h-227l49 354h235v67h-225l63 451h-67l-64 -451h-346l64 451h-68l-63 -451h-252v-67h241l-49 -354h-250v-68zM379 541l49 354h346l-49 -354h-346z" />
<glyph unicode="$" d="M25 481q2 -260 141 -379q135 -118 362 -137v-180h66v180q199 0 352 96q154 93 158 314q2 129 -72 225q-80 96 -278 147l-160 39v635q180 0 282 -88q103 -86 115 -287h78q-33 455 -475 451v100h-66v-100q-157 -6 -252 -51q-92 -47 -137 -113q-22 -31 -35 -63 q-14 -33 -22 -64q-14 -63 -12 -98q0 -92 32 -154q31 -63 84 -104q54 -39 119 -64q62 -24 127 -39l96 -22v-682q-426 39 -426 438h-77zM147 1108q-2 131 89 217q90 86 292 94v-614l-84 18q-125 25 -208 86q-41 31 -64 80q-25 49 -25 119zM594 43v668l125 -31 q309 -76 307 -305q-2 -174 -127 -252q-125 -82 -305 -80z" />
<glyph unicode="%" horiz-adv-x="1593" d="M82 1071q0 -152 94 -254q90 -106 246 -108q160 2 250 110q88 103 90 252q0 160 -88 262q-86 103 -250 105q-160 -2 -250 -107q-92 -102 -92 -260zM160 1071q0 125 69 211q66 86 193 88q129 -2 196 -88q66 -86 66 -211q0 -115 -70 -203q-69 -90 -194 -92q-121 2 -189 92 q-71 88 -71 203zM283 -49h82l952 1511h-82zM831 338q0 -152 95 -254q90 -107 245 -109q160 2 250 111q88 102 90 252q0 160 -88 262q-86 102 -250 104q-159 -2 -249 -106q-93 -102 -93 -260zM909 338q0 125 70 211q65 86 192 88q129 -2 197 -88q65 -86 65 -211 q0 -115 -69 -203q-70 -90 -195 -92q-120 2 -188 92q-72 88 -72 203z" />
<glyph unicode="&#x26;" horiz-adv-x="1214" d="M88 348q2 -184 127 -276q121 -97 307 -97q273 5 416 242l178 -217h105l-238 293q63 145 74 309h-78q-2 -127 -49 -244l-348 428q55 41 110 80q53 37 96 82t72 103q25 59 25 135q-2 123 -92 188q-91 64 -216 64q-118 -2 -208 -68q-97 -70 -99 -184q0 -56 21 -105 q18 -51 47 -98q59 -90 131 -176q-64 -39 -129 -82q-66 -41 -123 -96q-57 -52 -92 -119q-37 -70 -37 -162zM166 348q0 80 35 139q32 60 82 105q51 47 110 86q60 37 117 72l377 -469q4 -23 -88 -123q-45 -45 -113 -78q-72 -37 -164 -37q-137 0 -243 82q-111 78 -113 223z M348 1186q2 84 74 135q69 47 155 49q91 -2 158 -49q70 -51 72 -135q0 -62 -25 -111q-24 -51 -65 -92q-86 -82 -180 -139q-25 37 -56 78q-30 36 -63 77q-29 43 -47 88q-23 48 -23 99z" />
<glyph unicode="'" horiz-adv-x="418" d="M170 993h78v469h-78v-469z" />
<glyph unicode="(" horiz-adv-x="494" d="M133 545q4 -500 264 -922h70q-256 428 -256 922q2 510 262 952h-72q-264 -440 -268 -952z" />
<glyph unicode=")" horiz-adv-x="494" d="M20 -377h72q264 440 268 952q-4 500 -264 922h-69q256 -426 256 -922q-2 -509 -263 -952z" />
<glyph unicode="*" horiz-adv-x="721" d="M59 1223l254 -84l-166 -209l50 -41l163 217l158 -217l45 41l-155 209l251 84l-20 57l-250 -84v266h-59v-266l-252 84z" />
<glyph unicode="+" horiz-adv-x="1229" d="M98 477h477v-477h78v477h477v78h-477v477h-78v-477h-477v-78z" />
<glyph unicode="," horiz-adv-x="569" d="M205 -190v-68q76 31 104 104q27 72 27 154v211h-105v-211h43q0 -45 -10 -104q-6 -27 -20 -50q-15 -24 -39 -36z" />
<glyph unicode="-" horiz-adv-x="721" d="M141 518h439v78h-439v-78z" />
<glyph unicode="." horiz-adv-x="569" d="M231 0h105v211h-105v-211z" />
<glyph unicode="/" horiz-adv-x="682" d="M-27 -35h84l652 1532h-84z" />
<glyph unicode="0" d="M57 707q0 -127 25 -256q22 -129 80 -236q110 -231 407 -240q301 9 412 240q57 107 80 236q20 129 20 256q0 131 -20 260q-23 129 -80 235q-57 107 -158 172q-100 64 -254 64q-149 0 -250 -64q-100 -65 -157 -172q-109 -225 -105 -495zM135 707q0 110 21 225 q18 114 65 215q49 100 133 162q84 59 215 61q135 -2 219 -61q86 -62 134 -162q49 -101 65 -215q16 -115 16 -225q0 -107 -16 -222q-16 -114 -65 -215q-48 -98 -134 -161q-84 -66 -219 -66q-131 0 -215 66q-84 63 -133 161q-47 101 -65 215q-21 115 -21 222z" />
<glyph unicode="1" d="M221 1081q221 21 379 180v-1261h78v1413h-70q-133 -221 -387 -264v-68z" />
<glyph unicode="2" d="M94 0h942v78h-844q19 131 144 233q123 103 280 201q160 100 277 229q119 127 121 310q-2 196 -127 292q-125 95 -312 95q-417 0 -446 -502h78q0 188 94 309q94 123 287 125q143 -2 243 -86q103 -84 105 -231q-4 -174 -127 -289q-123 -117 -283 -217q-159 -99 -286 -223 q-60 -64 -99 -144q-41 -80 -47 -180z" />
<glyph unicode="3" d="M74 467q0 -485 489 -492q203 0 340 105q139 104 143 311q0 148 -81 246q-82 98 -228 117v4q127 20 203 108q72 88 74 215q-4 191 -140 275q-133 82 -311 82q-211 -2 -330 -129q-120 -129 -124 -342h77q9 180 101 290q92 111 276 113q137 0 252 -70q117 -69 121 -219 q-4 -180 -141 -241q-66 -33 -144 -45q-78 -13 -157 -11v-67q90 8 174 -4q84 -13 151 -49q146 -74 150 -273q-4 -168 -123 -258t-283 -90q-407 8 -411 424h-78z" />
<glyph unicode="4" d="M59 360h688v-360h78v360h238v68h-238v985h-78l-688 -975v-78zM137 428l606 879h4v-879h-610z" />
<glyph unicode="5" d="M76 432q-6 -215 135 -334q141 -121 350 -123q217 2 346 142q131 137 133 350q-2 215 -133 348q-129 131 -346 133q-219 0 -350 -170l-4 4l121 563h653v68h-715l-147 -731h80q129 199 362 199q178 -2 289 -119q110 -119 112 -295q-2 -178 -108 -297q-109 -125 -293 -127 q-174 0 -289 109q-116 104 -118 280h-78z" />
<glyph unicode="6" d="M86 637q-2 -266 106 -459q109 -196 398 -203q211 2 340 138q131 131 133 338q-2 213 -131 346q-129 135 -342 137q-144 0 -258 -82q-115 -82 -164 -221l-4 4q0 108 16 233q15 127 60 240q45 117 135 188q88 72 231 74q144 -2 238 -84t116 -221h78q-20 180 -135 276 q-117 97 -297 97q-162 -2 -262 -74q-102 -76 -160 -195q-55 -118 -75 -258q-23 -139 -23 -274zM190 451q2 176 115 294q107 119 285 121q176 -2 284 -123q109 -120 111 -292q-2 -170 -111 -287q-110 -119 -284 -121q-170 2 -281 119q-117 110 -119 289z" />
<glyph unicode="7" d="M115 1345h833q-352 -387 -479 -714q-125 -330 -141 -631h90q55 512 223 811t385 524v78h-911v-68z" />
<glyph unicode="8" d="M80 405q2 -217 145 -323q137 -107 344 -107q209 0 348 107q140 106 142 323q-6 316 -314 365v4q260 62 260 309q-4 199 -135 279q-129 78 -301 76q-170 2 -299 -76q-133 -80 -137 -279q0 -247 260 -309v-4q-307 -49 -313 -365zM158 405q2 177 125 254q116 76 286 76 q172 0 291 -76q119 -77 121 -254q-2 -186 -123 -274q-119 -88 -289 -88q-168 0 -286 88q-123 88 -125 274zM211 1083q2 160 111 226q104 63 247 61q148 2 250 -61q107 -66 109 -226q-2 -149 -109 -215q-106 -65 -250 -65q-141 0 -245 65q-111 66 -113 215z" />
<glyph unicode="9" d="M94 962q2 -215 133 -346q129 -135 344 -137q166 2 269 86q100 80 143 201l4 -4q0 -94 -12 -217q-17 -123 -62 -236q-45 -112 -133 -186q-90 -78 -235 -80q-140 0 -234 86q-94 82 -121 219h-77q24 -178 139 -274q117 -97 293 -99q166 2 268 78q104 76 158 195 q55 119 75 260q19 137 19 268q0 211 -45 344q-43 131 -119 201q-72 69 -158 96q-88 21 -172 21q-209 -2 -340 -134q-135 -129 -137 -342zM172 962q2 175 115 289q112 117 284 119q176 -2 287 -119q111 -114 113 -289q-2 -176 -111 -292q-110 -121 -289 -123q-172 2 -284 125 q-113 118 -115 290z" />
<glyph unicode=":" horiz-adv-x="569" d="M231 0h105v211h-105v-211zM231 842h105v211h-105v-211z" />
<glyph unicode=";" horiz-adv-x="569" d="M205 -190v-68q76 31 104 104q27 72 27 154v211h-105v-211h43q0 -45 -10 -104q-6 -27 -20 -50q-15 -24 -39 -36zM231 842h105v211h-105v-211z" />
<glyph unicode="&#x3c;" horiz-adv-x="1229" d="M94 467l1041 -483v86l-973 450l973 447v86l-1041 -480v-106z" />
<glyph unicode="=" horiz-adv-x="1229" d="M98 281h1032v77h-1032v-77zM98 678h1032v78h-1032v-78z" />
<glyph unicode="&#x3e;" horiz-adv-x="1229" d="M94 -16l1041 479v106l-1041 484v-86l973 -451l-973 -446v-86z" />
<glyph unicode="?" horiz-adv-x="1063" d="M88 1010h78q0 178 94 292q92 115 277 117q133 0 229 -67q98 -70 100 -222q-2 -106 -61 -188q-62 -82 -141 -152q-76 -67 -127 -161q-54 -99 -54 -258h78q0 92 21 157q18 66 47 111q30 45 65 82q35 35 68 61q37 33 69 70q33 35 58 74q24 41 41 92q14 49 14 112 q-2 187 -119 279q-114 88 -282 88q-221 -2 -336 -133q-119 -133 -119 -354zM473 0h104v211h-104v-211z" />
<glyph unicode="@" horiz-adv-x="1638" d="M94 737q2 -327 219 -545q213 -223 545 -227q430 8 653 379h-90q-205 -305 -563 -311q-266 2 -471 194q-211 191 -215 496q4 297 203 498q192 204 479 208q238 -2 422 -151q186 -150 190 -412q-4 -182 -112 -344q-52 -78 -117 -125q-68 -49 -139 -49q-33 0 -56 21 q-24 18 -24 49q0 22 12 57q10 35 21 66l196 606h-84l-47 -146h-4q-12 76 -72 131q-59 54 -157 56q-215 -6 -346 -197q-64 -88 -99 -194q-39 -109 -39 -220q0 -126 74 -212q70 -93 188 -95q172 0 275 146h4q4 -72 43 -109t92 -37q170 4 315 181q150 172 154 409 q-4 285 -201 459q-194 176 -493 178q-316 -4 -531 -221q-221 -213 -225 -539zM477 588q2 176 111 348q53 82 125 133q71 51 157 51q66 0 105 -26q37 -25 55 -64q19 -39 25 -80q4 -41 4 -71q-4 -189 -133 -379q-50 -70 -113 -115q-61 -47 -125 -47q-90 0 -147 70 q-64 65 -64 180z" />
<glyph unicode="A" horiz-adv-x="1214" d="M-25 0h97l186 469h700l185 -469h96l-578 1462h-98zM287 547l325 827h4l314 -827h-643z" />
<glyph unicode="B" horiz-adv-x="1290" d="M129 0h586q233 0 370 106q138 103 140 304q-2 110 -43 184q-45 70 -107 108q-59 41 -110 56q-40 11 -60 11q-6 0 -10 -1l-4 4q131 18 207 107q75 86 77 204q0 72 -20 142q-23 67 -78 120q-51 54 -141 86q-88 31 -221 31h-586v-1462zM219 78v643h496q75 0 149 -10 q72 -15 135 -52q64 -32 101 -94q35 -61 35 -155q-9 -330 -420 -332h-496zM219 799v585h496q151 0 260 -61q108 -66 110 -223q-2 -293 -370 -301h-496z" />
<glyph unicode="C" horiz-adv-x="1442" d="M74 731q2 -328 184 -541q90 -104 219 -163q129 -60 293 -62q248 4 416 174q168 164 196 430h-90q-16 -209 -160 -364q-143 -158 -362 -162q-289 4 -444 205q-162 196 -162 483q0 291 162 485q155 199 444 203q188 -2 328 -104q137 -103 170 -289h90q2 12 -19 84 q-20 72 -80 160q-59 90 -176 157q-118 68 -313 70q-332 -4 -512 -221q-182 -213 -184 -545z" />
<glyph unicode="D" horiz-adv-x="1366" d="M129 0h475q352 2 518 213q162 203 162 520v16q0 281 -139 490q-150 217 -537 223h-479v-1462zM219 78v1306h375q86 0 188 -16q101 -18 195 -84q94 -63 155 -195q60 -133 62 -356q-6 -371 -186 -516q-174 -139 -384 -139h-12h-393z" />
<glyph unicode="E" horiz-adv-x="1147" d="M129 0h993v78h-903v643h840v78h-840v585h893v78h-983v-1462z" />
<glyph unicode="F" horiz-adv-x="1053" d="M129 0h90v721h746v78h-746v585h827v78h-917v-1462z" />
<glyph unicode="G" horiz-adv-x="1517" d="M76 723q0 -322 178 -535q88 -102 217 -161q127 -60 293 -62q196 2 348 94q149 90 205 252h4v-311h78v717h-617v-78h539v-28q0 -250 -139 -404q-148 -162 -414 -164q-301 4 -451 201q-151 192 -151 479q0 282 156 485q151 207 446 211q410 -8 520 -409h86 q-41 233 -209 360q-168 125 -399 127q-330 -6 -508 -231q-182 -222 -182 -543z" />
<glyph unicode="H" horiz-adv-x="1372" d="M129 0h90v721h934v-721h90v1462h-90v-663h-934v663h-90v-1462z" />
<glyph unicode="I" horiz-adv-x="348" d="M129 0h90v1462h-90v-1462z" />
<glyph unicode="J" horiz-adv-x="985" d="M41 465v-20q0 -71 12 -148q10 -86 49 -162q39 -74 123 -121t230 -49q153 2 237 53q82 52 117 129q35 78 43 160q4 82 4 148v1007h-90v-977q0 -75 -2 -151q-4 -78 -31 -144q-26 -65 -92 -104q-70 -43 -197 -43q-106 0 -172 37q-65 35 -98 94q-31 59 -39 135q-5 51 -5 103 q0 26 1 53h-90z" />
<glyph unicode="K" horiz-adv-x="1255" d="M129 0h90v516l303 277l662 -793h112l-708 854l667 608h-116l-920 -842v842h-90v-1462z" />
<glyph unicode="L" horiz-adv-x="1024" d="M129 0h920v78h-830v1384h-90v-1462z" />
<glyph unicode="M" horiz-adv-x="1657" d="M129 0h90v1352h4l563 -1352h90l557 1352h5v-1352h90v1462h-129l-566 -1362h-4l-571 1362h-129v-1462z" />
<glyph unicode="N" horiz-adv-x="1388" d="M129 0h90v1352h4l930 -1352h106v1462h-90v-1341h-4l-923 1341h-113v-1462z" />
<glyph unicode="O" horiz-adv-x="1517" d="M63 731q3 -328 185 -541q90 -104 219 -163q129 -60 293 -62q166 2 295 62q129 59 217 163q180 213 182 541q-2 332 -182 545q-180 217 -512 221q-332 -4 -512 -221q-182 -213 -185 -545zM154 731q0 291 161 485q156 199 445 203q289 -4 446 -203q156 -194 158 -485 q-2 -287 -158 -483q-157 -201 -446 -205q-289 4 -445 205q-161 196 -161 483z" />
<glyph unicode="P" horiz-adv-x="1210" d="M129 0h90v651h500q452 4 459 402q0 131 -41 213q-41 81 -109 124q-66 43 -137 60q-74 12 -139 12h-623v-1462zM219 729v655h526q111 0 181 -34q67 -35 102 -89q35 -53 49 -106q10 -55 10 -100q0 -56 -16 -113q-18 -57 -61 -104q-39 -48 -107 -76q-70 -33 -170 -33h-514z " />
<glyph unicode="Q" horiz-adv-x="1517" d="M63 731q3 -328 185 -541q90 -104 219 -163q129 -60 293 -62q248 2 413 133l242 -174l47 64l-227 164q217 213 219 579q-2 332 -182 545q-180 217 -512 221q-332 -4 -512 -221q-182 -213 -185 -545zM154 731q0 291 161 485q156 199 445 203q289 -4 446 -203 q156 -194 158 -485q-2 -326 -201 -528l-235 170l-47 -64l221 -157q-140 -109 -342 -109q-289 4 -445 205q-161 196 -161 483z" />
<glyph unicode="R" horiz-adv-x="1290" d="M129 0h90v666h520q99 0 162 -19q64 -20 100 -55q39 -33 60 -80q18 -47 22 -102q7 -82 7 -165q0 -28 -1 -55q0 -53 9 -100q4 -24 10 -45q6 -25 14 -45h101q-39 61 -39 170q-2 106 -11 223q-4 117 -65 207q-31 43 -82 72q-55 24 -137 35v4q307 65 313 374q-2 209 -133 295 q-128 82 -321 82h-9h-610v-1462zM219 743v641h520q154 0 262 -67q109 -72 111 -238q-2 -174 -104 -254q-105 -82 -269 -82h-520z" />
<glyph unicode="S" horiz-adv-x="1290" d="M80 483q4 -278 180 -399q174 -119 436 -119q180 0 342 94q166 93 172 318q0 110 -41 182q-43 70 -114 113q-72 43 -158 69q-90 25 -186 41q-47 13 -91 23q-47 8 -90 20q-88 21 -159 54q-72 32 -113 90q-45 55 -45 139q0 92 41 151q39 62 98 97q125 63 254 63h8 q205 0 334 -92q127 -94 135 -283h90q-14 240 -168 349q-155 104 -391 104q-180 0 -331 -88q-156 -90 -160 -301q0 -103 45 -170q41 -66 113 -109q71 -39 159 -63q43 -12 90 -23q43 -12 90 -24q97 -17 187 -37q86 -21 158 -57q71 -37 114 -95q41 -59 41 -153t-39 -158 q-41 -63 -106 -102q-64 -39 -135 -56q-74 -18 -144 -18h-8q-216 0 -369 102q-149 100 -149 326v12h-90z" />
<glyph unicode="T" horiz-adv-x="1063" d="M-29 1384h514v-1384h90v1384h517v78h-1121v-78z" />
<glyph unicode="U" horiz-adv-x="1376" d="M129 586v-17q0 -69 14 -161q15 -105 66 -205q53 -101 166 -168q112 -68 303 -70q323 4 450 182q119 169 119 430v9v876h-90v-876v-9q0 -245 -102 -387q-111 -145 -377 -147q-156 2 -248 61q-94 58 -139 146q-43 88 -58 178q-14 92 -14 158v876h-90v-876z" />
<glyph unicode="V" d="M-29 1462l545 -1462h104l547 1462h-90l-506 -1384h-4l-501 1384h-95z" />
<glyph unicode="W" horiz-adv-x="1821" d="M-12 1462l422 -1462h100l395 1384h4l402 -1384h102l420 1462h-96l-375 -1366h-4l-393 1366h-113l-387 -1366h-4l-381 1366h-92z" />
<glyph unicode="X" d="M-35 0h107l497 684l496 -684h108l-544 752l516 710h-103l-473 -643l-463 643h-104l512 -710z" />
<glyph unicode="Y" horiz-adv-x="1175" d="M-43 1462l584 -850v-612h90v612l587 850h-100l-530 -774l-529 774h-102z" />
<glyph unicode="Z" horiz-adv-x="1100" d="M-2 0h1104v78h-1010l991 1306v78h-1026v-78h928l-987 -1306v-78z" />
<glyph unicode="[" horiz-adv-x="494" d="M192 -377h281v68h-203v1738h203v68h-281v-1874z" />
<glyph unicode="\" horiz-adv-x="682" d="M-27 1497l652 -1532h84l-652 1532h-84z" />
<glyph unicode="]" horiz-adv-x="494" d="M20 -309v-68h281v1874h-281v-68h203v-1738h-203z" />
<glyph unicode="^" horiz-adv-x="1229" d="M80 485h86l450 860l447 -860h86l-479 928h-107z" />
<glyph unicode="_" horiz-adv-x="1024" d="M0 -154v-102h1024v102h-1024z" />
<glyph unicode="`" horiz-adv-x="342" d="M-61 1497l274 -287h76l-246 287h-104z" />
<glyph unicode="a" horiz-adv-x="1024" d="M66 272q2 -163 102 -229q98 -68 250 -68q151 2 254 72q100 68 137 162h4v-55v-8q0 -60 27 -99q24 -47 114 -47q31 0 64 8v66q-37 -6 -58 -6q-49 0 -59 41q-10 33 -10 72v14v608q-2 159 -115 219q-106 55 -244 55h-10q-379 0 -401 -348h78q28 279 323 281q92 0 150 -23 q57 -27 88 -61q33 -35 45 -68q10 -35 10 -55q0 -64 -6 -101q-8 -38 -43 -63q-62 -41 -313 -55q-31 0 -64 -4q-33 -7 -67 -15q-68 -14 -127 -49q-58 -33 -93 -90q-36 -61 -36 -154zM143 272q2 226 289 244q117 12 225 25q54 6 93 20q40 12 63 37v-197q0 -20 -10 -77 q-13 -58 -51 -121q-39 -64 -119 -109q-78 -51 -213 -51q-137 2 -205 68q-72 63 -72 161z" />
<glyph unicode="b" d="M133 0h78v236h4q10 -52 102 -150q50 -43 123 -76q74 -33 174 -35q58 0 136 21q75 20 149 80q72 61 123 176q47 113 49 299q0 225 -111 375q-112 149 -346 151q-129 0 -239 -61q-111 -62 -160 -187h-4v633h-78v-1462zM213 551q0 203 98 330q99 127 303 129 q191 -5 285 -142q94 -135 94 -317q0 -191 -84 -344q-45 -72 -116 -117q-74 -47 -179 -47q-213 4 -307 158q-94 146 -94 342v8z" />
<glyph unicode="c" horiz-adv-x="1063" d="M68 537q0 -226 114 -390q115 -167 369 -172q174 2 297 105q121 102 147 291h-78q-20 -148 -118 -236q-99 -90 -248 -92q-203 2 -303 141q-103 138 -103 353q0 188 107 327q102 141 299 146q147 0 246 -70q98 -72 110 -213h78q-18 180 -139 266q-119 84 -295 84 q-234 -4 -359 -160q-124 -153 -124 -380z" />
<glyph unicode="d" d="M66 524v-12q0 -217 110 -371q109 -161 344 -166q279 0 404 250h4v-225h77v1462h-77v-645h-4q-19 64 -58 113t-92 82q-106 65 -240 65q-235 -2 -352 -158q-116 -155 -116 -395zM143 524v8q0 194 93 332q92 141 298 146q203 -5 299 -150q93 -143 93 -336q0 -188 -95 -329 q-94 -148 -294 -152q-203 4 -297 149q-97 140 -97 332z" />
<glyph unicode="e" horiz-adv-x="1063" d="M68 508v-7q0 -218 116 -368q117 -153 348 -158q385 5 455 381h-78q-67 -309 -377 -313q-194 2 -290 145q-97 135 -97 320v8h850q1 24 1 48q0 205 -101 347q-115 162 -363 166q-235 -4 -352 -174q-112 -161 -112 -376v-19zM145 584q15 163 113 292t274 134 q183 -5 283 -129q98 -125 102 -297h-772z" />
<glyph unicode="f" horiz-adv-x="494" d="M0 985h188v-985h78v985h219v68h-219v211q0 88 47 118q41 29 107 29q47 0 92 -10v67q-45 11 -92 11q-98 0 -162 -48q-70 -51 -70 -161v-217h-188v-68z" />
<glyph unicode="g" horiz-adv-x="1100" d="M68 559q0 -223 112 -369q113 -149 342 -151q268 2 381 240h4v-242q0 -27 -4 -84q-8 -59 -43 -127q-35 -64 -113 -109q-77 -49 -215 -51q-133 0 -225 62q-94 61 -110 198h-78q12 -178 127 -254q112 -73 284 -73q170 0 265 57q94 55 135 137t49 156q6 74 6 106v998h-78 v-220h-4q-45 121 -149 183q-105 61 -232 61q-221 -4 -336 -153q-118 -148 -118 -365zM145 559q0 176 95 311q92 135 282 140q195 -5 289 -136t94 -315t-94 -313q-94 -137 -289 -140q-184 3 -280 136q-97 129 -97 317z" />
<glyph unicode="h" horiz-adv-x="1063" d="M115 0h77v569q0 197 103 318q100 121 276 123q107 -2 170 -37q62 -35 88 -92q29 -56 37 -113q4 -59 4 -102v-666h78v651q0 51 -4 123q-8 70 -43 139q-33 70 -111 117q-77 45 -217 47q-125 0 -229 -63q-104 -66 -147 -187h-5v635h-77v-1462z" />
<glyph unicode="i" horiz-adv-x="344" d="M133 0h78v1053h-78v-1053zM133 1251h78v211h-78v-211z" />
<glyph unicode="j" horiz-adv-x="344" d="M-70 -307v-68q33 -2 66 -2q133 2 176 80q25 37 33 86q6 47 6 98v1166h-78v-1159q0 -117 -33 -162q-37 -43 -118 -43q-33 0 -52 4zM133 1251h78v211h-78v-211z" />
<glyph unicode="k" horiz-adv-x="948" d="M119 0h78v397l239 203l449 -600h106l-493 659l460 394h-112l-649 -559v968h-78v-1462z" />
<glyph unicode="l" horiz-adv-x="344" d="M133 0h78v1462h-78v-1462z" />
<glyph unicode="m" horiz-adv-x="1630" d="M117 0h78v623q4 202 112 296q103 91 221 91q29 0 70 -7q39 -8 80 -38q41 -27 69 -84q29 -60 29 -160v-721h78v623q0 190 94 288q92 99 236 99q26 0 67 -7q41 -8 82 -36q45 -27 74 -84q29 -62 29 -162v-721h77v719q-2 186 -92 274q-90 84 -237 84q-248 -2 -334 -223h-4 q-15 86 -90 154q-39 32 -95 51q-57 18 -133 18q-118 -2 -211 -69q-92 -66 -118 -170h-4v215h-78v-1053z" />
<glyph unicode="n" horiz-adv-x="1063" d="M115 0h77v569q0 197 103 318q100 121 276 123q107 -2 170 -37q62 -35 88 -92q29 -56 37 -113q4 -59 4 -102v-666h78v651q0 51 -4 123q-8 70 -43 139q-33 70 -111 117q-77 45 -217 47q-125 0 -229 -63q-104 -66 -147 -187h-5v226h-77v-1053z" />
<glyph unicode="o" horiz-adv-x="1100" d="M66 526q0 -229 126 -387q125 -159 357 -164q235 5 358 164q125 158 125 387q0 232 -125 389q-123 158 -358 162q-232 -4 -357 -162q-126 -157 -126 -389zM143 526q0 197 107 338q102 141 299 146q201 -5 303 -146t102 -338q0 -194 -102 -334q-102 -145 -303 -149 q-197 4 -299 149q-107 140 -107 334z" />
<glyph unicode="p" d="M133 -377h78v596h4q49 -125 152 -184q100 -60 231 -60q242 2 358 156q115 150 115 393q0 232 -115 389q-116 160 -358 164q-172 -4 -264 -92q-94 -86 -119 -174h-4v242h-78v-1430zM213 524v8q0 190 88 330q90 143 297 148q211 -5 305 -152q90 -145 90 -334 q0 -198 -92 -338q-98 -141 -303 -143q-217 4 -303 149q-82 137 -82 323v9z" />
<glyph unicode="q" d="M66 528q0 -237 116 -391q117 -157 352 -162q134 2 240 70q107 66 150 191h4v-613h77v1430h-77v-226h-4q-125 250 -404 250q-235 -4 -344 -164q-110 -155 -110 -373v-12zM143 528q0 195 97 336q94 141 297 146q200 -5 294 -150q95 -143 95 -332q0 -190 -93 -333 q-96 -148 -299 -152q-206 4 -298 149q-93 137 -93 328v8z" />
<glyph unicode="r" horiz-adv-x="569" d="M115 0h77v575q7 117 35 183q27 65 84 121q74 69 152 92q51 13 96 13q22 0 43 -3v78h-16q-135 0 -240 -64q-113 -69 -147 -176h-7v234h-77v-1053z" />
<glyph unicode="s" horiz-adv-x="985" d="M74 350q10 -184 127 -278q116 -97 299 -97q71 0 145 15q72 14 131 47q64 35 100 92q35 55 35 137t-28 137q-29 54 -78 86q-105 64 -266 86q-31 9 -62 17q-31 6 -63 12q-31 10 -58 19q-30 8 -55 20q-51 25 -80 64q-33 38 -33 100q0 59 29 98q27 37 70 62q92 43 204 43 q136 0 224 -62q86 -63 88 -207h78q-2 181 -109 260q-108 76 -281 76h-9q-134 0 -246 -55q-56 -31 -89 -82q-36 -53 -36 -133t32 -131q29 -51 82 -84q54 -31 117 -49q63 -21 131 -35q68 -12 133 -27q66 -14 115 -39q53 -22 84 -65q28 -43 28 -111q0 -65 -32 -108 q-31 -45 -82 -70q-49 -25 -107 -33q-59 -12 -112 -12q-144 0 -240 82q-96 80 -108 225h-78z" />
<glyph unicode="t" horiz-adv-x="530" d="M0 985h195v-735v-18q0 -75 22 -121q25 -52 68 -76q45 -25 100 -31q37 -5 76 -5q19 0 39 1v68q-19 -1 -37 -1q-84 0 -131 27q-60 33 -60 156v735h230v68h-230v327h-77v-327h-195v-68z" />
<glyph unicode="u" horiz-adv-x="1063" d="M115 401q0 -49 8 -118q8 -72 41 -142q35 -69 112 -114q76 -50 213 -52q127 2 232 68q102 66 145 182h4v-225h78v1053h-78v-570q0 -196 -100 -315q-98 -123 -279 -125q-106 0 -165 41q-60 35 -90 92q-27 57 -35 113q-9 57 -9 98v666h-77v-652z" />
<glyph unicode="v" horiz-adv-x="909" d="M-4 1053l424 -1053h96l397 1053h-86l-356 -963h-4l-381 963h-90z" />
<glyph unicode="w" horiz-adv-x="1442" d="M-4 1053l334 -1053h98l291 954h4l289 -954h96l338 1053h-86l-295 -963h-4l-289 963h-104l-287 -963h-4l-297 963h-84z" />
<glyph unicode="x" horiz-adv-x="909" d="M-12 0h98l369 494l360 -494h107l-416 553l381 500h-101l-331 -441l-330 441h-109l385 -500z" />
<glyph unicode="y" horiz-adv-x="909" d="M-12 1053l440 -1047q-68 -205 -109 -248q-38 -39 -86 -53q-51 -14 -133 -14v-68h24q152 0 222 47q33 29 64 84q30 56 59 133l450 1166h-88l-360 -961l-391 961h-92z" />
<glyph unicode="z" horiz-adv-x="872" d="M18 0h836v68h-741l708 911v74h-747v-68h651l-707 -911v-74z" />
<glyph unicode="{" horiz-adv-x="682" d="M170 520q88 -8 119 -104q28 -97 28 -228v-323q0 -135 48 -189q47 -53 133 -53h102v68h-98q-60 0 -84 49q-23 47 -23 162v321q0 105 -16 168q-19 64 -43 98q-25 37 -47 54q-25 14 -37 22q12 6 37 23q22 14 47 47q24 37 43 100q16 62 16 162v321q0 115 23 166q24 45 84 45 h98v68h-102q-86 2 -133 -49q-48 -53 -48 -193v-325q0 -62 -4 -119q-6 -59 -24 -107q-15 -45 -43 -73q-31 -29 -76 -33v-78z" />
<glyph unicode="|" horiz-adv-x="455" d="M188 -438h78v2048h-78v-2048z" />
<glyph unicode="}" horiz-adv-x="682" d="M82 -309v-68h102q86 0 133 53q48 54 48 189v323q-3 131 30 228q15 47 45 75q29 29 72 29v78q-88 8 -117 106q-33 99 -30 226v325q0 140 -48 193q-47 51 -133 49h-102v-68h98q64 0 86 -45q21 -51 21 -166v-321q0 -100 20 -162q19 -63 43 -100q27 -33 49 -47q23 -17 31 -23 q-8 -8 -31 -22q-22 -17 -49 -54q-24 -34 -43 -98q-20 -63 -20 -168v-321q0 -115 -21 -162q-22 -49 -86 -49h-98z" />
<glyph unicode="~" horiz-adv-x="1229" d="M149 455l60 -62q20 53 67 103q48 49 136 51q43 0 98 -21q55 -20 90 -41q129 -75 233 -77q89 2 150 57q31 26 55 57q25 29 43 60l-57 57q-25 -51 -76 -100q-49 -52 -112 -54q-64 0 -115 29q-51 25 -94 45q-66 31 -117 49q-51 17 -111 17q-90 0 -147 -45q-55 -43 -103 -125 z" />
<glyph unicode="&#xa1;" horiz-adv-x="530" d="M213 885h104v211h-104v-211zM215 117v-494h98v494l-24 594h-49z" />
<glyph unicode="&#xa2;" d="M104 537q0 -220 109 -381q106 -160 344 -181v-217h66v217q339 31 409 396h-78q-18 -138 -106 -226t-225 -102v967q135 -9 223 -80q86 -70 98 -203h78q-19 170 -125 258q-111 86 -274 92v182h-66v-182q-219 -14 -334 -168q-119 -153 -119 -372zM182 537q0 182 97 319 q96 135 278 154v-967q-188 16 -281 152q-94 133 -94 342z" />
<glyph unicode="&#xa3;" d="M90 35l51 -70q64 41 119 66q53 24 127 24q51 0 100 -12q50 -12 97 -33q51 -16 106 -28q53 -17 115 -17q90 2 170 45q80 41 139 105l-45 67q-55 -55 -119 -94q-65 -45 -157 -45q-50 0 -95 14q-45 13 -92 29q-45 18 -98 35q-51 12 -115 12q-51 0 -98 -20q-49 -23 -94 -54 l-4 4q84 70 141 173q59 102 61 219q-2 157 -47 221h289v67h-328q-41 80 -84 168q-47 88 -49 197q0 145 107 229q102 82 282 82q408 -4 402 -428h78q4 506 -482 506q-188 0 -323 -98q-140 -101 -142 -295q0 -99 39 -187q37 -92 84 -174h-123v-67h160q57 -86 60 -217 q-3 -133 -72 -238q-70 -104 -160 -186z" />
<glyph unicode="&#xa4;" d="M61 707q2 -181 125 -330l-114 -113l55 -55l113 115q147 -125 327 -125q183 0 332 125l109 -111l55 55l-111 111q125 145 125 328q0 182 -125 329l113 111l-55 55l-111 -113q-149 125 -332 125q-180 -2 -327 -122l-115 114l-55 -55l116 -115q-125 -147 -125 -329zM152 707 q2 184 124 305q119 123 293 125q174 -2 295 -125q121 -121 123 -305q-2 -183 -123 -304q-121 -124 -295 -127q-174 3 -293 127q-122 121 -124 304z" />
<glyph unicode="&#xa5;" d="M-14 1462l487 -762h-188v-67h245v-160h-245v-68h245v-405h78v405h246v68h-246v160h246v67h-188l487 762h-92l-490 -766l-487 766h-98z" />
<glyph unicode="&#xa6;" horiz-adv-x="455" d="M188 -182h78v512h-78v-512zM188 842h78v512h-78v-512z" />
<glyph unicode="&#xa7;" d="M106 690q-2 -145 105 -237q104 -93 262 -179q143 -69 254 -153q113 -82 115 -215q-2 -111 -72 -162q-72 -53 -197 -53q-147 2 -217 96q-69 92 -75 231h-78q0 -174 98 -282q96 -111 274 -113q144 0 242 66q100 65 102 217q0 88 -26 143q-29 55 -90 109q100 26 164 94 q63 67 63 184q-2 162 -115 254q-51 47 -116 86q-66 37 -135 70q-138 67 -246 151q-115 82 -117 217q8 103 88 160t174 55q139 -2 213 -102q72 -98 66 -229h77q0 184 -90 290q-88 107 -266 109q-133 4 -233 -74q-105 -80 -107 -209q-8 -41 19 -116q22 -76 92 -133 q-92 -31 -156 -103q-69 -72 -72 -172zM184 690q2 86 66 146q59 55 133 83l311 -184q92 -49 174 -119q82 -73 84 -180q-2 -100 -71 -160q-33 -26 -74 -49q-43 -22 -64 -20q-168 106 -338 207q-36 24 -73 51q-39 26 -74 59q-31 35 -51 74q-23 41 -23 92z" />
<glyph unicode="&#xa8;" horiz-adv-x="342" d="M-37 1216h90v211h-90v-211zM287 1216h90v211h-90v-211z" />
<glyph unicode="&#xa9;" horiz-adv-x="1638" d="M53 731q4 -323 226 -541q217 -221 540 -225q328 4 545 225q217 218 221 541q-4 328 -221 545t-545 221q-323 -4 -540 -221q-222 -217 -226 -545zM131 733q2 301 199 496q190 196 491 200q301 -4 492 -200q192 -195 194 -496q-4 -295 -194 -493q-191 -203 -492 -207 q-299 4 -489 205q-199 196 -201 495zM379 733q2 -209 129 -346q123 -139 334 -141q151 0 258 92q104 88 127 237h-78q-27 -116 -105 -186q-75 -76 -202 -76q-181 2 -281 127q-104 119 -104 295q0 182 100 297q98 113 281 115q251 -4 311 -250h78q-21 154 -129 238 q-109 79 -262 79q-213 -2 -332 -133q-125 -133 -125 -348z" />
<glyph unicode="&#xaa;" horiz-adv-x="635" d="M27 946q0 -113 69 -153q64 -46 166 -43q103 0 168 43q66 38 84 96h4v-29q-2 -37 19 -63q16 -29 73 -29q19 0 41 4v55q-24 -4 -37 -4q-26 0 -30 25q-9 22 -7 51v365q-2 102 -73 141q-74 33 -174 33q-244 -2 -271 -217h66q8 77 61 120q54 41 138 41q86 0 139 -26 q51 -27 51 -82q2 -74 -33 -99q-39 -24 -202 -34q-91 -2 -168 -41q-37 -21 -60 -58q-24 -37 -24 -96zM92 946q2 125 180 139q72 9 142 15q67 6 98 35v-115q0 -12 -6 -45q-8 -35 -35 -74q-25 -39 -76 -65q-51 -31 -139 -31q-78 0 -119 43q-45 39 -45 98z" />
<glyph unicode="&#xab;" horiz-adv-x="797" d="M137 516l234 -268v100l-174 209l174 205v104l-234 -268v-82zM399 516l234 -268v100l-174 209l174 205v104l-234 -268v-82z" />
<glyph unicode="&#xac;" horiz-adv-x="1229" d="M98 678h955v-457h77v535h-1032v-78z" />
<glyph unicode="&#xad;" horiz-adv-x="721" d="M141 518h439v78h-439v-78z" />
<glyph unicode="&#xae;" horiz-adv-x="1638" d="M53 731q4 -323 226 -541q217 -221 540 -225q328 4 545 225q217 218 221 541q-4 328 -221 545t-545 221q-323 -4 -540 -221q-222 -217 -226 -545zM131 731q2 305 199 498q190 196 491 200q301 -4 492 -200q192 -195 194 -496q-4 -295 -194 -493q-191 -203 -492 -207 q-299 4 -489 205q-199 198 -201 493zM541 279h77v417h236l272 -417h86l-270 415q100 17 168 74q63 57 65 166q3 248 -294 250h-340v-905zM618 764v352h250q86 0 158 -37q70 -41 72 -143q0 -57 -25 -90q-24 -35 -65 -53q-19 -9 -41 -13q-25 -6 -50 -10q-53 -6 -106 -6h-193z " />
<glyph unicode="&#xaf;" horiz-adv-x="342" d="M-76 1288h496v68h-496v-68z" />
<glyph unicode="&#xb0;" horiz-adv-x="819" d="M117 1145q2 -125 86 -207q82 -84 207 -86q127 2 208 86q82 82 84 207q-2 127 -84 209q-81 82 -208 84q-125 -2 -207 -84q-84 -82 -86 -209zM195 1145q0 96 63 159q57 64 152 66q94 -2 155 -66q58 -63 60 -159q-2 -94 -60 -158q-61 -65 -155 -68q-95 3 -152 68 q-63 64 -63 158z" />
<glyph unicode="&#xb1;" horiz-adv-x="1229" d="M98 0h1032v78h-1032v-78zM98 567h477v-387h78v387h477v78h-477v387h-78v-387h-477v-78z" />
<glyph unicode="&#xb2;" horiz-adv-x="682" d="M33 563h614v55h-549q33 93 111 150q76 55 174 113q102 63 180 139q76 76 78 176q-2 127 -84 184q-82 58 -209 58q-158 -2 -223 -84q-68 -84 -76 -226h66q2 248 233 254q119 -2 174 -57q53 -55 53 -127q-2 -96 -81 -164q-78 -69 -185 -129q-102 -59 -184 -137 q-37 -41 -64 -90q-24 -51 -28 -115z" />
<glyph unicode="&#xb3;" horiz-adv-x="682" d="M37 850q-4 -305 340 -305q133 0 221 63q90 64 92 193q0 88 -51 147q-53 57 -150 68v4q84 14 134 67q47 52 47 127q-2 121 -90 174q-89 50 -203 50q-309 -7 -318 -293h66q6 106 65 172q60 63 177 65q84 0 159 -39q76 -43 78 -129q-2 -106 -92 -141q-18 -8 -41 -14 q-25 -6 -49 -10q-51 -9 -105 -9v-55q119 10 211 -31q95 -41 97 -153q-2 -94 -78 -148q-78 -53 -180 -53q-125 0 -195 70q-72 65 -70 180h-65z" />
<glyph unicode="&#xb4;" horiz-adv-x="342" d="M53 1210h76l274 287h-104z" />
<glyph unicode="&#xb5;" horiz-adv-x="1063" d="M115 -377h77v467h5q53 -63 131 -88q77 -27 161 -27q127 2 232 68q102 66 145 182h4v-225h78v1053h-78v-570q0 -196 -100 -315q-98 -123 -279 -125q-106 0 -165 41q-60 35 -90 92q-27 57 -35 113q-9 57 -9 98v666h-77v-1430z" />
<glyph unicode="&#xb6;" horiz-adv-x="1229" d="M135 1061q2 -164 123 -277q119 -118 301 -120v-963h78v1694h321v-1694h78v1761h-444q-451 -2 -457 -401z" />
<glyph unicode="&#xb7;" horiz-adv-x="569" d="M174 649q0 -43 35 -76q33 -36 76 -36q47 0 80 34q32 33 32 78q0 47 -32 80q-35 29 -80 31q-43 0 -76 -33q-35 -33 -35 -78z" />
<glyph unicode="&#xb8;" horiz-adv-x="342" d="M-18 -358q53 -39 184 -43q94 0 151 36q58 37 58 115q-2 80 -47 115q-45 37 -107 35q-24 0 -43 -4q-18 -7 -33 -15l-4 4l99 115h-70l-115 -154l33 -26q45 24 109 24q30 0 65 -20q33 -25 35 -74q-2 -53 -41 -74q-39 -22 -88 -22q-51 2 -90 14q-39 11 -74 23z" />
<glyph unicode="&#xb9;" horiz-adv-x="682" d="M121 1214q145 13 239 109v-760h66v856h-59q-88 -123 -246 -149v-56z" />
<glyph unicode="&#xba;" horiz-adv-x="684" d="M18 1094q0 -150 84 -246t240 -98q158 2 242 98q82 96 82 246q0 151 -82 245q-84 97 -242 99q-156 -2 -240 -99q-84 -94 -84 -245zM84 1094q0 118 63 202q64 84 195 86q135 -2 199 -86q59 -84 59 -202q0 -117 -59 -201q-64 -86 -199 -88q-131 2 -195 88q-63 84 -63 201z " />
<glyph unicode="&#xbb;" horiz-adv-x="797" d="M164 248l233 268v82l-233 268v-104l174 -205l-174 -209v-100zM426 248l233 268v82l-233 268v-104l174 -205l-174 -209v-100z" />
<glyph unicode="&#xbc;" horiz-adv-x="1708" d="M192 1214q146 13 240 109v-760h66v856h-60q-88 -123 -246 -149v-56zM309 -49h82l952 1511h-82zM872 213h441v-213h65v213h146v55h-146v580h-96l-410 -580v-55zM946 268l363 512h4v-512h-367z" />
<glyph unicode="&#xbd;" horiz-adv-x="1708" d="M131 1214q145 13 240 109v-760h65v856h-59q-88 -123 -246 -149v-56zM248 -49h82l952 1511h-82zM989 0h614v55h-544q30 92 106 150q76 55 174 112q103 64 181 140q75 75 77 176q-2 127 -84 184t-209 57q-157 -2 -223 -84q-67 -83 -76 -225h66q2 248 233 254 q119 -2 175 -57q53 -55 53 -127q-2 -96 -82 -164q-78 -70 -184 -129q-103 -59 -185 -137q-37 -41 -63 -90q-25 -52 -29 -115z" />
<glyph unicode="&#xbe;" horiz-adv-x="1708" d="M68 850q-5 -305 340 -305q133 0 221 63q90 64 92 193q0 88 -51 147q-54 57 -150 68v4q84 14 133 67q47 52 47 127q-2 121 -90 174q-88 50 -202 50q-310 -7 -318 -293h66q6 106 65 172q60 63 176 65q84 0 160 -39q76 -43 78 -129q-2 -106 -92 -141q-19 -8 -41 -14 q-25 -6 -49 -10q-52 -9 -105 -9v-55q119 10 211 -31q94 -41 96 -153q-2 -94 -78 -148q-77 -53 -180 -53q-125 0 -194 70q-72 65 -70 180h-65zM405 -49h82l953 1511h-82zM934 213h440v-213h66v213h145v55h-145v580h-97l-409 -580v-55zM1008 268l362 512h4v-512h-366z" />
<glyph unicode="&#xbf;" horiz-adv-x="1063" d="M117 -35q2 -184 121 -274q112 -92 280 -92q225 2 340 135q115 131 115 352h-78q0 -178 -92 -291q-92 -116 -279 -119q-131 0 -227 70q-100 70 -102 219q2 107 65 189q59 82 137 151q76 68 127 166q51 94 53 254h-77q0 -88 -17 -152q-18 -63 -47 -112q-28 -45 -63 -80 q-37 -37 -74 -68q-35 -32 -66 -65q-30 -37 -59 -76q-57 -78 -57 -207zM483 885h105v211h-105v-211z" />
<glyph unicode="&#xc0;" horiz-adv-x="1214" d="M-25 0h97l186 469h700l185 -469h96l-578 1462h-98zM287 547l325 827h4l314 -827h-643zM386 1851l274 -287h76l-246 287h-104z" />
<glyph unicode="&#xc1;" horiz-adv-x="1214" d="M-25 0h97l186 469h700l185 -469h96l-578 1462h-98zM287 547l325 827h4l314 -827h-643zM505 1564h76l274 287h-104z" />
<glyph unicode="&#xc2;" horiz-adv-x="1214" d="M-25 0h97l186 469h700l185 -469h96l-578 1462h-98zM287 547l325 827h4l314 -827h-643zM340 1564h77l199 236l201 -236h77l-237 287h-82z" />
<glyph unicode="&#xc3;" horiz-adv-x="1214" d="M-25 0h97l186 469h700l185 -469h96l-578 1462h-98zM287 547l325 827h4l314 -827h-643zM322 1587h59q7 43 29 80q21 34 64 37q73 -5 143 -58q33 -18 70 -39q34 -20 71 -20q78 2 113 59q35 51 43 125h-59q-3 -41 -25 -78q-25 -39 -68 -39q-30 0 -65 23q-37 20 -74 39 q-37 22 -70 39q-36 16 -73 16q-70 -2 -111 -57q-41 -56 -47 -127z" />
<glyph unicode="&#xc4;" horiz-adv-x="1214" d="M-25 0h97l186 469h700l185 -469h96l-578 1462h-98zM287 547l325 827h4l314 -827h-643zM412 1570h90v211h-90v-211zM736 1570h90v211h-90v-211z" />
<glyph unicode="&#xc5;" horiz-adv-x="1214" d="M-25 0h97l186 469h700l185 -469h96l-578 1462h-98zM287 547l325 827h4l314 -827h-643zM406 1696q2 -86 60 -144q57 -59 143 -59q88 0 145 59q56 58 58 144q-2 88 -58 145q-57 55 -145 57q-86 -2 -143 -57q-58 -57 -60 -145zM462 1696q0 63 43 104q40 41 104 43 q63 -2 104 -43t43 -104q-2 -64 -43 -105q-41 -43 -104 -43q-64 0 -104 43q-43 41 -43 105z" />
<glyph unicode="&#xc6;" horiz-adv-x="1782" d="M-18 0h81l271 520h549v-520h868v78h-778v643h716v78h-716v585h776v78h-1004zM375 598l411 786h97v-786h-508z" />
<glyph unicode="&#xc7;" horiz-adv-x="1442" d="M74 731q0 -307 164 -518q161 -209 458 -244l-90 -123l33 -26q45 24 108 24q31 0 66 -20q33 -25 35 -74q-2 -53 -41 -74q-39 -22 -88 -22q-51 2 -90 14q-39 11 -74 23l-23 -49q54 -39 185 -43q94 0 151 36q58 37 58 115q-2 80 -47 115q-46 37 -107 35q-25 0 -43 -4 q-18 -7 -33 -15l-4 4l68 80h10q248 4 416 174q168 164 196 430h-90q-16 -209 -160 -364q-143 -158 -362 -162q-289 4 -444 205q-162 196 -162 483q0 291 162 485q155 199 444 203q188 -2 328 -104q137 -103 170 -289h90q2 12 -19 84q-20 72 -80 160q-59 90 -176 157 q-118 68 -313 70q-332 -4 -512 -221q-182 -213 -184 -545z" />
<glyph unicode="&#xc8;" horiz-adv-x="1147" d="M129 0h993v78h-903v643h840v78h-840v585h893v78h-983v-1462zM349 1851l274 -287h76l-246 287h-104z" />
<glyph unicode="&#xc9;" horiz-adv-x="1147" d="M129 0h993v78h-903v643h840v78h-840v585h893v78h-983v-1462zM468 1564h76l274 287h-104z" />
<glyph unicode="&#xca;" horiz-adv-x="1147" d="M129 0h993v78h-903v643h840v78h-840v585h893v78h-983v-1462zM302 1564h77l199 236l201 -236h77l-237 287h-82z" />
<glyph unicode="&#xcb;" horiz-adv-x="1147" d="M129 0h993v78h-903v643h840v78h-840v585h893v78h-983v-1462zM395 1570h90v211h-90v-211zM719 1570h90v211h-90v-211z" />
<glyph unicode="&#xcc;" horiz-adv-x="348" d="M-61 1851l274 -287h76l-246 287h-104zM129 0h90v1462h-90v-1462z" />
<glyph unicode="&#xcd;" horiz-adv-x="348" d="M54 1564h76l274 287h-104zM129 0h90v1462h-90v-1462z" />
<glyph unicode="&#xce;" horiz-adv-x="348" d="M-108 1564h77l199 236l201 -236h77l-237 287h-82zM129 0h90v1462h-90v-1462z" />
<glyph unicode="&#xcf;" horiz-adv-x="348" d="M-37 1570h90v211h-90v-211zM129 0h90v1462h-90v-1462zM287 1570h90v211h-90v-211z" />
<glyph unicode="&#xd0;" horiz-adv-x="1366" d="M-10 743h139v-743h475q352 2 518 213q162 203 162 520q4 291 -139 506q-150 217 -537 223h-479v-651h-139v-68zM219 78v665h541v68h-541v573h375q86 0 188 -16q101 -18 195 -84q94 -63 155 -195q60 -133 62 -356q-6 -371 -186 -516q-179 -143 -396 -139h-393z" />
<glyph unicode="&#xd1;" horiz-adv-x="1388" d="M129 0h90v1352h4l930 -1352h106v1462h-90v-1341h-4l-923 1341h-113v-1462zM407 1587h59q7 43 29 80q21 34 64 37q73 -5 143 -58q33 -18 70 -39q34 -20 71 -20q78 2 113 59q35 51 43 125h-59q-3 -41 -25 -78q-25 -39 -68 -39q-30 0 -65 23q-37 20 -74 39q-37 22 -70 39 q-36 16 -73 16q-70 -2 -111 -57q-41 -56 -47 -127z" />
<glyph unicode="&#xd2;" horiz-adv-x="1517" d="M63 731q3 -328 185 -541q90 -104 219 -163q129 -60 293 -62q166 2 295 62q129 59 217 163q180 213 182 541q-2 332 -182 545q-180 217 -512 221q-332 -4 -512 -221q-182 -213 -185 -545zM154 731q0 291 161 485q156 199 445 203q289 -4 446 -203q156 -194 158 -485 q-2 -287 -158 -483q-157 -201 -446 -205q-289 4 -445 205q-161 196 -161 483zM541 1851l274 -287h76l-246 287h-104z" />
<glyph unicode="&#xd3;" horiz-adv-x="1517" d="M63 731q3 -328 185 -541q90 -104 219 -163q129 -60 293 -62q166 2 295 62q129 59 217 163q180 213 182 541q-2 332 -182 545q-180 217 -512 221q-332 -4 -512 -221q-182 -213 -185 -545zM154 731q0 291 161 485q156 199 445 203q289 -4 446 -203q156 -194 158 -485 q-2 -287 -158 -483q-157 -201 -446 -205q-289 4 -445 205q-161 196 -161 483zM657 1564h76l274 287h-104z" />
<glyph unicode="&#xd4;" horiz-adv-x="1517" d="M63 731q3 -328 185 -541q90 -104 219 -163q129 -60 293 -62q166 2 295 62q129 59 217 163q180 213 182 541q-2 332 -182 545q-180 217 -512 221q-332 -4 -512 -221q-182 -213 -185 -545zM154 731q0 291 161 485q156 199 445 203q289 -4 446 -203q156 -194 158 -485 q-2 -287 -158 -483q-157 -201 -446 -205q-289 4 -445 205q-161 196 -161 483zM494 1564h77l199 236l201 -236h77l-237 287h-82z" />
<glyph unicode="&#xd5;" horiz-adv-x="1517" d="M63 731q3 -328 185 -541q90 -104 219 -163q129 -60 293 -62q166 2 295 62q129 59 217 163q180 213 182 541q-2 332 -182 545q-180 217 -512 221q-332 -4 -512 -221q-182 -213 -185 -545zM154 731q0 291 161 485q156 199 445 203q289 -4 446 -203q156 -194 158 -485 q-2 -287 -158 -483q-157 -201 -446 -205q-289 4 -445 205q-161 196 -161 483zM474 1587h59q7 43 29 80q21 34 64 37q73 -5 143 -58q33 -18 70 -39q34 -20 71 -20q78 2 113 59q35 51 43 125h-59q-3 -41 -25 -78q-25 -39 -68 -39q-30 0 -65 23q-37 20 -74 39q-37 22 -70 39 q-36 16 -73 16q-70 -2 -111 -57q-41 -56 -47 -127z" />
<glyph unicode="&#xd6;" horiz-adv-x="1517" d="M63 731q3 -328 185 -541q90 -104 219 -163q129 -60 293 -62q166 2 295 62q129 59 217 163q180 213 182 541q-2 332 -182 545q-180 217 -512 221q-332 -4 -512 -221q-182 -213 -185 -545zM154 731q0 291 161 485q156 199 445 203q289 -4 446 -203q156 -194 158 -485 q-2 -287 -158 -483q-157 -201 -446 -205q-289 4 -445 205q-161 196 -161 483zM565 1570h90v211h-90v-211zM889 1570h90v211h-90v-211z" />
<glyph unicode="&#xd7;" horiz-adv-x="1229" d="M162 119l53 -56l399 400l398 -400l55 56l-397 397l397 399l-55 56l-398 -400l-399 400l-53 -56l397 -399z" />
<glyph unicode="&#xd8;" horiz-adv-x="1517" d="M63 731q0 -311 168 -522l-161 -176l53 -49l156 172q178 -189 481 -191q166 2 295 62q129 59 217 163q180 213 182 541q-2 318 -170 526l143 156l-53 49l-139 -151q-178 182 -475 186q-332 -4 -512 -221q-182 -213 -185 -545zM154 731q0 291 161 485q156 199 445 203 q262 -4 418 -172l-885 -973q-139 191 -139 457zM338 221l887 971q137 -191 139 -461q-2 -287 -158 -483q-157 -201 -446 -205q-266 2 -422 178z" />
<glyph unicode="&#xd9;" horiz-adv-x="1376" d="M129 586q-2 -74 14 -178q15 -105 66 -205q53 -101 166 -168q112 -68 303 -70q323 4 450 182q121 172 119 439v876h-90v-876q2 -252 -102 -396q-111 -145 -377 -147q-156 2 -248 61q-94 58 -139 146q-43 88 -58 178q-14 92 -14 158v876h-90v-876zM466 1851l274 -287h76 l-246 287h-104z" />
<glyph unicode="&#xda;" horiz-adv-x="1376" d="M129 586q-2 -74 14 -178q15 -105 66 -205q53 -101 166 -168q112 -68 303 -70q323 4 450 182q121 172 119 439v876h-90v-876q2 -252 -102 -396q-111 -145 -377 -147q-156 2 -248 61q-94 58 -139 146q-43 88 -58 178q-14 92 -14 158v876h-90v-876zM582 1564h76l274 287 h-104z" />
<glyph unicode="&#xdb;" horiz-adv-x="1376" d="M129 586q-2 -74 14 -178q15 -105 66 -205q53 -101 166 -168q112 -68 303 -70q323 4 450 182q121 172 119 439v876h-90v-876q2 -252 -102 -396q-111 -145 -377 -147q-156 2 -248 61q-94 58 -139 146q-43 88 -58 178q-14 92 -14 158v876h-90v-876zM419 1564h77l199 236 l201 -236h77l-237 287h-82z" />
<glyph unicode="&#xdc;" horiz-adv-x="1376" d="M129 586q-2 -74 14 -178q15 -105 66 -205q53 -101 166 -168q112 -68 303 -70q323 4 450 182q121 172 119 439v876h-90v-876q2 -252 -102 -396q-111 -145 -377 -147q-156 2 -248 61q-94 58 -139 146q-43 88 -58 178q-14 92 -14 158v876h-90v-876zM490 1570h90v211h-90 v-211zM814 1570h90v211h-90v-211z" />
<glyph unicode="&#xdd;" horiz-adv-x="1175" d="M-43 1462l584 -850v-612h90v612l587 850h-100l-530 -774l-529 774h-102zM487 1564h76l274 287h-104z" />
<glyph unicode="&#xde;" horiz-adv-x="1214" d="M129 0h90v405h500q452 5 459 404q0 131 -41 213t-109 123q-66 43 -137 59q-74 12 -139 12h-533v246h-90v-1462zM219 483v656h526q111 0 181 -33q67 -35 102 -88t49 -107q10 -55 10 -100q0 -55 -16 -113q-18 -59 -61 -106q-39 -47 -107 -76q-70 -33 -170 -33h-514z" />
<glyph unicode="&#xdf;" horiz-adv-x="1024" d="M119 0h78v1100q-5 313 294 319q132 0 218 -67q88 -68 90 -205q-2 -162 -113 -232q-109 -71 -262 -71v-68q194 2 319 -65q125 -74 127 -273q0 -125 -39 -198q-41 -76 -100 -113q-59 -35 -119 -47q-63 -14 -110 -12h-78v-68h113q51 0 118 14q70 15 135 58q68 45 113 133 t45 233q0 332 -315 383v4q246 64 243 322q-2 172 -110 258q-109 82 -275 82q-374 -4 -372 -387v-1100z" />
<glyph unicode="&#xe0;" horiz-adv-x="1024" d="M66 272q2 -163 102 -229q98 -68 250 -68q151 2 254 72q100 68 137 162h4v-55q-2 -66 27 -107q24 -47 114 -47q31 0 64 8v66q-37 -6 -58 -6q-49 0 -59 41q-12 38 -10 86v608q-2 159 -115 219q-110 57 -254 55q-379 0 -401 -348h78q28 279 323 281q92 0 150 -23 q57 -27 88 -61q33 -35 45 -68q10 -35 10 -55q0 -64 -6 -101q-8 -38 -43 -63q-62 -41 -313 -55q-31 0 -64 -4q-33 -7 -67 -15q-68 -14 -127 -49q-58 -33 -93 -90q-36 -61 -36 -154zM143 272q2 226 289 244q117 12 225 25q54 6 93 20q40 12 63 37v-197q0 -20 -10 -77 q-13 -58 -51 -121q-39 -64 -119 -109q-78 -51 -213 -51q-137 2 -205 68q-72 63 -72 161zM288 1497l274 -287h76l-246 287h-104z" />
<glyph unicode="&#xe1;" horiz-adv-x="1024" d="M66 272q2 -163 102 -229q98 -68 250 -68q151 2 254 72q100 68 137 162h4v-55q-2 -66 27 -107q24 -47 114 -47q31 0 64 8v66q-37 -6 -58 -6q-49 0 -59 41q-12 38 -10 86v608q-2 159 -115 219q-110 57 -254 55q-379 0 -401 -348h78q28 279 323 281q92 0 150 -23 q57 -27 88 -61q33 -35 45 -68q10 -35 10 -55q0 -64 -6 -101q-8 -38 -43 -63q-62 -41 -313 -55q-31 0 -64 -4q-33 -7 -67 -15q-68 -14 -127 -49q-58 -33 -93 -90q-36 -61 -36 -154zM143 272q2 226 289 244q117 12 225 25q54 6 93 20q40 12 63 37v-197q0 -20 -10 -77 q-13 -58 -51 -121q-39 -64 -119 -109q-78 -51 -213 -51q-137 2 -205 68q-72 63 -72 161zM407 1210h76l274 287h-104z" />
<glyph unicode="&#xe2;" horiz-adv-x="1024" d="M66 272q2 -163 102 -229q98 -68 250 -68q151 2 254 72q100 68 137 162h4v-55q-2 -66 27 -107q24 -47 114 -47q31 0 64 8v66q-37 -6 -58 -6q-49 0 -59 41q-12 38 -10 86v608q-2 159 -115 219q-110 57 -254 55q-379 0 -401 -348h78q28 279 323 281q92 0 150 -23 q57 -27 88 -61q33 -35 45 -68q10 -35 10 -55q0 -64 -6 -101q-8 -38 -43 -63q-62 -41 -313 -55q-31 0 -64 -4q-33 -7 -67 -15q-68 -14 -127 -49q-58 -33 -93 -90q-36 -61 -36 -154zM143 272q2 226 289 244q117 12 225 25q54 6 93 20q40 12 63 37v-197q0 -20 -10 -77 q-13 -58 -51 -121q-39 -64 -119 -109q-78 -51 -213 -51q-137 2 -205 68q-72 63 -72 161zM241 1210h77l199 236l201 -236h77l-237 287h-82z" />
<glyph unicode="&#xe3;" horiz-adv-x="1024" d="M66 272q2 -163 102 -229q98 -68 250 -68q151 2 254 72q100 68 137 162h4v-55q-2 -66 27 -107q24 -47 114 -47q31 0 64 8v66q-37 -6 -58 -6q-49 0 -59 41q-12 38 -10 86v608q-2 159 -115 219q-110 57 -254 55q-379 0 -401 -348h78q28 279 323 281q92 0 150 -23 q57 -27 88 -61q33 -35 45 -68q10 -35 10 -55q0 -64 -6 -101q-8 -38 -43 -63q-62 -41 -313 -55q-31 0 -64 -4q-33 -7 -67 -15q-68 -14 -127 -49q-58 -33 -93 -90q-36 -61 -36 -154zM143 272q2 226 289 244q117 12 225 25q54 6 93 20q40 12 63 37v-197q0 -20 -10 -77 q-13 -58 -51 -121q-39 -64 -119 -109q-78 -51 -213 -51q-137 2 -205 68q-72 63 -72 161zM223 1233h59q7 43 29 80q21 34 64 37q73 -5 143 -58q33 -18 70 -39q34 -20 71 -20q78 2 113 59q35 51 43 125h-59q-3 -41 -25 -78q-25 -39 -68 -39q-30 0 -65 23q-37 20 -74 39 q-37 22 -70 39q-36 16 -73 16q-70 -2 -111 -57q-41 -56 -47 -127z" />
<glyph unicode="&#xe4;" horiz-adv-x="1024" d="M66 272q2 -163 102 -229q98 -68 250 -68q151 2 254 72q100 68 137 162h4v-55q-2 -66 27 -107q24 -47 114 -47q31 0 64 8v66q-37 -6 -58 -6q-49 0 -59 41q-12 38 -10 86v608q-2 159 -115 219q-110 57 -254 55q-379 0 -401 -348h78q28 279 323 281q92 0 150 -23 q57 -27 88 -61q33 -35 45 -68q10 -35 10 -55q0 -64 -6 -101q-8 -38 -43 -63q-62 -41 -313 -55q-31 0 -64 -4q-33 -7 -67 -15q-68 -14 -127 -49q-58 -33 -93 -90q-36 -61 -36 -154zM143 272q2 226 289 244q117 12 225 25q54 6 93 20q40 12 63 37v-197q0 -20 -10 -77 q-13 -58 -51 -121q-39 -64 -119 -109q-78 -51 -213 -51q-137 2 -205 68q-72 63 -72 161zM314 1216h90v211h-90v-211zM638 1216h90v211h-90v-211z" />
<glyph unicode="&#xe5;" horiz-adv-x="1024" d="M66 272q2 -163 102 -229q98 -68 250 -68q151 2 254 72q100 68 137 162h4v-55q-2 -66 27 -107q24 -47 114 -47q31 0 64 8v66q-37 -6 -58 -6q-49 0 -59 41q-12 38 -10 86v608q-2 159 -115 219q-110 57 -254 55q-379 0 -401 -348h78q28 279 323 281q92 0 150 -23 q57 -27 88 -61q33 -35 45 -68q10 -35 10 -55q0 -64 -6 -101q-8 -38 -43 -63q-62 -41 -313 -55q-31 0 -64 -4q-33 -7 -67 -15q-68 -14 -127 -49q-58 -33 -93 -90q-36 -61 -36 -154zM143 272q2 226 289 244q117 12 225 25q54 6 93 20q40 12 63 37v-197q0 -20 -10 -77 q-13 -58 -51 -121q-39 -64 -119 -109q-78 -51 -213 -51q-137 2 -205 68q-72 63 -72 161zM318 1311q2 -86 60 -144q57 -59 143 -59q88 0 145 59q56 58 58 144q-2 88 -58 145q-57 55 -145 57q-86 -2 -143 -57q-58 -57 -60 -145zM374 1311q0 63 43 104q40 41 104 43 q63 -2 104 -43t43 -104q-2 -64 -43 -105q-41 -43 -104 -43q-64 0 -104 43q-43 41 -43 105z" />
<glyph unicode="&#xe6;" horiz-adv-x="1821" d="M66 268q2 -153 114 -223q111 -70 262 -70q314 7 428 306h4q39 -150 152 -228t270 -78q373 7 445 375h-78q-57 -305 -367 -307q-200 2 -299 141q-98 133 -86 332h842q20 231 -96 393q-117 164 -361 168q-293 0 -399 -268h-4q-17 158 -119 215q-102 53 -250 53 q-176 0 -286 -84q-113 -88 -127 -270h77q15 149 105 219q88 68 231 68q307 2 307 -246q7 -72 -26 -109q-33 -39 -90 -49q-56 -12 -125 -14q-72 -4 -142 -12q-59 0 -124 -13q-68 -14 -127 -49q-58 -33 -93 -94q-38 -62 -38 -156zM143 268q2 133 90 191q41 30 95 45 q53 12 112 14q137 10 248 21q53 6 90 20q37 12 49 33h4v-180q-6 -158 -118 -260q-113 -107 -271 -109q-114 0 -202 53q-43 29 -68 72q-29 43 -29 100zM909 584q13 178 107 299q92 125 280 127q181 -2 283 -127q100 -121 96 -299h-766z" />
<glyph unicode="&#xe7;" horiz-adv-x="1063" d="M68 537q-2 -220 106 -377q107 -160 340 -183l-98 -131l32 -26q46 24 109 24q31 0 66 -20q32 -25 34 -74q-2 -53 -41 -74q-39 -22 -88 -22q-51 2 -90 14q-39 11 -73 23l-23 -49q53 -39 184 -43q94 0 152 36q57 37 57 115q-2 80 -47 115q-45 37 -106 35q-25 0 -43 -4 q-19 -7 -33 -15l-4 4l80 92q344 27 413 394h-78q-20 -148 -118 -236q-99 -90 -248 -92q-203 2 -303 141q-103 138 -103 353q0 188 107 327q102 141 299 146q147 0 246 -70q98 -72 110 -213h78q-18 180 -139 266q-119 84 -295 84q-234 -4 -359 -160q-124 -153 -124 -380z" />
<glyph unicode="&#xe8;" horiz-adv-x="1063" d="M68 508q-2 -223 116 -375q117 -153 348 -158q385 5 455 381h-78q-67 -309 -377 -313q-194 2 -290 145q-99 138 -97 328h850q13 236 -100 395q-115 162 -363 166q-235 -4 -352 -174q-117 -168 -112 -395zM145 584q15 163 113 292t274 134q183 -5 283 -129 q98 -125 102 -297h-772zM301 1497l274 -287h76l-246 287h-104z" />
<glyph unicode="&#xe9;" horiz-adv-x="1063" d="M68 508q-2 -223 116 -375q117 -153 348 -158q385 5 455 381h-78q-67 -309 -377 -313q-194 2 -290 145q-99 138 -97 328h850q13 236 -100 395q-115 162 -363 166q-235 -4 -352 -174q-117 -168 -112 -395zM145 584q15 163 113 292t274 134q183 -5 283 -129 q98 -125 102 -297h-772zM420 1210h76l274 287h-104z" />
<glyph unicode="&#xea;" horiz-adv-x="1063" d="M68 508q-2 -223 116 -375q117 -153 348 -158q385 5 455 381h-78q-67 -309 -377 -313q-194 2 -290 145q-99 138 -97 328h850q13 236 -100 395q-115 162 -363 166q-235 -4 -352 -174q-117 -168 -112 -395zM145 584q15 163 113 292t274 134q183 -5 283 -129 q98 -125 102 -297h-772zM254 1210h77l199 236l201 -236h77l-237 287h-82z" />
<glyph unicode="&#xeb;" horiz-adv-x="1063" d="M68 508q-2 -223 116 -375q117 -153 348 -158q385 5 455 381h-78q-67 -309 -377 -313q-194 2 -290 145q-99 138 -97 328h850q13 236 -100 395q-115 162 -363 166q-235 -4 -352 -174q-117 -168 -112 -395zM145 584q15 163 113 292t274 134q183 -5 283 -129 q98 -125 102 -297h-772zM327 1216h90v211h-90v-211zM651 1216h90v211h-90v-211z" />
<glyph unicode="&#xec;" horiz-adv-x="344" d="M-63 1497l274 -287h76l-246 287h-104zM133 0h78v1053h-78v-1053z" />
<glyph unicode="&#xed;" horiz-adv-x="344" d="M53 1210h76l274 287h-104zM133 0h78v1053h-78v-1053z" />
<glyph unicode="&#xee;" horiz-adv-x="344" d="M-112 1210h77l199 236l201 -236h77l-237 287h-82zM133 0h78v1053h-78v-1053z" />
<glyph unicode="&#xef;" horiz-adv-x="344" d="M-39 1216h90v211h-90v-211zM133 0h78v1053h-78v-1053zM285 1216h90v211h-90v-211z" />
<glyph unicode="&#xf0;" horiz-adv-x="1100" d="M66 510q0 -229 120 -379q119 -151 365 -156q244 5 362 158q119 150 119 377q-2 500 -391 803l223 125l-41 45l-235 -131q-99 79 -221 145l-58 -49q107 -53 211 -133l-221 -123l43 -45l229 127q217 -170 318 -385l-4 -4q-74 88 -156 120q-86 31 -178 31q-234 -4 -359 -155 q-126 -150 -126 -371zM143 510q0 184 107 319q102 136 301 140q203 -4 303 -140q100 -135 100 -319q0 -191 -96 -326q-96 -139 -307 -141q-205 4 -307 143q-101 136 -101 324z" />
<glyph unicode="&#xf1;" horiz-adv-x="1063" d="M115 0h77v569q0 197 103 318q100 121 276 123q107 -2 170 -37q62 -35 88 -92q29 -56 37 -113q4 -59 4 -102v-666h78v651q0 51 -4 123q-8 70 -43 139q-33 70 -111 117q-77 45 -217 47q-125 0 -229 -63q-104 -66 -147 -187h-5v226h-77v-1053zM240 1233h59q7 43 29 80 q21 34 64 37q73 -5 143 -58q33 -18 70 -39q34 -20 71 -20q78 2 113 59q35 51 43 125h-59q-3 -41 -25 -78q-25 -39 -68 -39q-30 0 -65 23q-37 20 -74 39q-37 22 -70 39q-36 16 -73 16q-70 -2 -111 -57q-41 -56 -47 -127z" />
<glyph unicode="&#xf2;" horiz-adv-x="1100" d="M66 526q0 -229 126 -387q125 -159 357 -164q235 5 358 164q125 158 125 387q0 232 -125 389q-123 158 -358 162q-232 -4 -357 -162q-126 -157 -126 -389zM143 526q0 197 107 338q102 141 299 146q201 -5 303 -146t102 -338q0 -194 -102 -334q-102 -145 -303 -149 q-197 4 -299 149q-107 140 -107 334zM326 1497l274 -287h76l-246 287h-104z" />
<glyph unicode="&#xf3;" horiz-adv-x="1100" d="M66 526q0 -229 126 -387q125 -159 357 -164q235 5 358 164q125 158 125 387q0 232 -125 389q-123 158 -358 162q-232 -4 -357 -162q-126 -157 -126 -389zM143 526q0 197 107 338q102 141 299 146q201 -5 303 -146t102 -338q0 -194 -102 -334q-102 -145 -303 -149 q-197 4 -299 149q-107 140 -107 334zM445 1210h76l274 287h-104z" />
<glyph unicode="&#xf4;" horiz-adv-x="1100" d="M66 526q0 -229 126 -387q125 -159 357 -164q235 5 358 164q125 158 125 387q0 232 -125 389q-123 158 -358 162q-232 -4 -357 -162q-126 -157 -126 -389zM143 526q0 197 107 338q102 141 299 146q201 -5 303 -146t102 -338q0 -194 -102 -334q-102 -145 -303 -149 q-197 4 -299 149q-107 140 -107 334zM280 1210h77l199 236l201 -236h77l-237 287h-82z" />
<glyph unicode="&#xf5;" horiz-adv-x="1100" d="M66 526q0 -229 126 -387q125 -159 357 -164q235 5 358 164q125 158 125 387q0 232 -125 389q-123 158 -358 162q-232 -4 -357 -162q-126 -157 -126 -389zM143 526q0 197 107 338q102 141 299 146q201 -5 303 -146t102 -338q0 -194 -102 -334q-102 -145 -303 -149 q-197 4 -299 149q-107 140 -107 334zM259 1233h59q7 43 29 80q21 34 64 37q73 -5 143 -58q33 -18 70 -39q34 -20 71 -20q78 2 113 59q35 51 43 125h-59q-3 -41 -25 -78q-25 -39 -68 -39q-30 0 -65 23q-37 20 -74 39q-37 22 -70 39q-36 16 -73 16q-70 -2 -111 -57 q-41 -56 -47 -127z" />
<glyph unicode="&#xf6;" horiz-adv-x="1100" d="M66 526q0 -229 126 -387q125 -159 357 -164q235 5 358 164q125 158 125 387q0 232 -125 389q-123 158 -358 162q-232 -4 -357 -162q-126 -157 -126 -389zM143 526q0 197 107 338q102 141 299 146q201 -5 303 -146t102 -338q0 -194 -102 -334q-102 -145 -303 -149 q-197 4 -299 149q-107 140 -107 334zM350 1216h90v211h-90v-211zM674 1216h90v211h-90v-211z" />
<glyph unicode="&#xf7;" horiz-adv-x="1229" d="M98 477h1032v78h-1032v-78zM512 104q0 -43 33 -71q28 -33 71 -33q45 0 76 33q29 28 31 71q-2 48 -31 78q-31 29 -76 29q-43 0 -71 -29q-33 -30 -33 -78zM512 926q0 -43 33 -72q28 -33 71 -33q45 0 76 33q29 29 31 72q-2 47 -31 77q-31 29 -76 29q-43 0 -71 -29 q-33 -30 -33 -77z" />
<glyph unicode="&#xf8;" horiz-adv-x="1100" d="M51 47l49 -47l111 117q121 -137 338 -142q235 5 358 164q125 158 125 387q0 205 -100 350l119 127l-50 48l-112 -119q-119 143 -340 145q-232 -4 -357 -162q-126 -157 -126 -389q0 -207 102 -354zM143 526q0 197 107 338q102 141 299 146q190 -5 287 -134l-613 -647 q-80 129 -80 297zM264 172l612 647q78 -129 78 -293q0 -194 -102 -334q-102 -145 -303 -149q-182 2 -285 129z" />
<glyph unicode="&#xf9;" horiz-adv-x="1063" d="M115 401q0 -49 8 -118q8 -72 41 -142q35 -69 112 -114q76 -50 213 -52q127 2 232 68q102 66 145 182h4v-225h78v1053h-78v-570q0 -196 -100 -315q-98 -123 -279 -125q-106 0 -165 41q-60 35 -90 92q-27 57 -35 113q-9 57 -9 98v666h-77v-652zM304 1497l274 -287h76 l-246 287h-104z" />
<glyph unicode="&#xfa;" horiz-adv-x="1063" d="M115 401q0 -49 8 -118q8 -72 41 -142q35 -69 112 -114q76 -50 213 -52q127 2 232 68q102 66 145 182h4v-225h78v1053h-78v-570q0 -196 -100 -315q-98 -123 -279 -125q-106 0 -165 41q-60 35 -90 92q-27 57 -35 113q-9 57 -9 98v666h-77v-652zM423 1210h76l274 287h-104z " />
<glyph unicode="&#xfb;" horiz-adv-x="1063" d="M115 401q0 -49 8 -118q8 -72 41 -142q35 -69 112 -114q76 -50 213 -52q127 2 232 68q102 66 145 182h4v-225h78v1053h-78v-570q0 -196 -100 -315q-98 -123 -279 -125q-106 0 -165 41q-60 35 -90 92q-27 57 -35 113q-9 57 -9 98v666h-77v-652zM258 1210h77l199 236 l201 -236h77l-237 287h-82z" />
<glyph unicode="&#xfc;" horiz-adv-x="1063" d="M115 401q0 -49 8 -118q8 -72 41 -142q35 -69 112 -114q76 -50 213 -52q127 2 232 68q102 66 145 182h4v-225h78v1053h-78v-570q0 -196 -100 -315q-98 -123 -279 -125q-106 0 -165 41q-60 35 -90 92q-27 57 -35 113q-9 57 -9 98v666h-77v-652zM331 1216h90v211h-90v-211z M655 1216h90v211h-90v-211z" />
<glyph unicode="&#xfd;" horiz-adv-x="909" d="M-12 1053l440 -1047q-68 -205 -109 -248q-38 -39 -86 -53q-51 -14 -133 -14v-68q170 -4 246 47q33 29 64 84q30 56 59 133l450 1166h-88l-360 -961l-391 961h-92zM349 1210h76l274 287h-104z" />
<glyph unicode="&#xfe;" d="M133 -377h78v596h4q49 -125 152 -184q100 -60 231 -60q242 2 358 156q115 150 115 393q0 232 -115 389q-116 160 -358 164q-172 -4 -264 -92q-94 -86 -119 -174h-4v651h-78v-1839zM213 524q-2 195 88 338t297 148q211 -5 305 -152q90 -145 90 -334q0 -198 -92 -338 q-98 -141 -303 -143q-217 4 -303 149q-84 140 -82 332z" />
<glyph unicode="&#xff;" horiz-adv-x="909" d="M-12 1053l440 -1047q-68 -205 -109 -248q-38 -39 -86 -53q-51 -14 -133 -14v-68q170 -4 246 47q33 29 64 84q30 56 59 133l450 1166h-88l-360 -961l-391 961h-92zM256 1216h90v211h-90v-211zM580 1216h90v211h-90v-211z" />
<glyph unicode="&#x152;" horiz-adv-x="2163" d="M63 725q0 -326 177 -539q170 -217 497 -221q164 2 275 53q108 50 157 117h4v-135h959v78h-868v643h774v78h-774v585h864v78h-955v-135q-172 170 -419 170q-334 -4 -510 -229q-181 -222 -181 -543zM154 725q0 289 155 487q154 203 453 207q162 0 295 -90q37 -22 75 -61 q39 -41 41 -84v-924q0 -20 -16 -43q-18 -25 -47 -47q-59 -47 -109 -72q-122 -57 -258 -55q-301 4 -444 203q-145 194 -145 479z" />
<glyph unicode="&#x153;" horiz-adv-x="1821" d="M66 512q-3 -213 102 -371q100 -161 346 -166q317 2 393 310h4q68 -305 410 -310q178 2 285 103q104 100 141 268h-78q-31 -137 -117 -219q-86 -84 -231 -84q-205 4 -293 147q-88 140 -78 326h805q14 227 -90 391q-107 166 -344 170q-324 -2 -408 -311h-4 q-73 307 -389 311q-235 -4 -344 -170q-113 -164 -110 -395zM143 512q-2 182 80 336q84 157 295 162q199 -5 279 -152q77 -145 75 -346q0 -78 -14 -160t-55 -151q-76 -154 -287 -158q-194 4 -283 143q-90 136 -90 326zM950 584q-2 172 90 297q92 124 281 129q178 -5 268 -129 q88 -125 88 -297h-727z" />
<glyph unicode="&#x178;" horiz-adv-x="1175" d="M-43 1462l584 -850v-612h90v612l587 850h-100l-530 -774l-529 774h-102zM394 1570h90v211h-90v-211zM718 1570h90v211h-90v-211z" />
<glyph unicode="&#x2c6;" horiz-adv-x="342" d="M-106 1210h77l199 236l201 -236h77l-237 287h-82z" />
<glyph unicode="&#x2dc;" horiz-adv-x="342" d="M-125 1233h59q7 43 29 80q21 34 64 37q73 -5 143 -58q33 -18 70 -39q34 -20 71 -20q78 2 113 59q35 51 43 125h-59q-3 -41 -25 -78q-25 -39 -68 -39q-30 0 -65 23q-37 20 -74 39q-37 22 -70 39q-36 16 -73 16q-70 -2 -111 -57q-41 -56 -47 -127z" />
<glyph unicode="&#x2000;" horiz-adv-x="949" />
<glyph unicode="&#x2001;" horiz-adv-x="1898" />
<glyph unicode="&#x2002;" horiz-adv-x="949" />
<glyph unicode="&#x2003;" horiz-adv-x="1898" />
<glyph unicode="&#x2004;" horiz-adv-x="632" />
<glyph unicode="&#x2005;" horiz-adv-x="474" />
<glyph unicode="&#x2006;" horiz-adv-x="316" />
<glyph unicode="&#x2007;" horiz-adv-x="316" />
<glyph unicode="&#x2008;" horiz-adv-x="237" />
<glyph unicode="&#x2009;" horiz-adv-x="379" />
<glyph unicode="&#x200a;" horiz-adv-x="105" />
<glyph unicode="&#x2010;" horiz-adv-x="721" d="M141 518h439v78h-439v-78z" />
<glyph unicode="&#x2011;" horiz-adv-x="721" d="M141 518h439v78h-439v-78z" />
<glyph unicode="&#x2012;" horiz-adv-x="721" d="M141 518h439v78h-439v-78z" />
<glyph unicode="&#x2013;" horiz-adv-x="1024" d="M0 518h1024v78h-1024v-78z" />
<glyph unicode="&#x2014;" horiz-adv-x="2048" d="M266 518h1516v78h-1516v-78z" />
<glyph unicode="&#x2018;" horiz-adv-x="418" d="M162 993h104v211h-43q0 23 4 51q4 29 11 58q14 59 55 82v67q-37 -12 -62 -39q-24 -26 -41 -61q-28 -72 -28 -158v-211z" />
<glyph unicode="&#x2019;" horiz-adv-x="418" d="M125 993q76 31 104 105q27 71 27 153v211h-104v-211h43q0 -45 -11 -104q-6 -27 -20 -49q-15 -25 -39 -37v-68z" />
<glyph unicode="&#x201a;" horiz-adv-x="418" d="M125 -190v-68q76 31 104 104q27 72 27 154v211h-104v-211h43q0 -45 -11 -104q-6 -27 -20 -50q-15 -24 -39 -36z" />
<glyph unicode="&#x201c;" horiz-adv-x="645" d="M131 993h105v211h-44q0 23 5 51q4 29 10 58q14 59 55 82v67q-37 -12 -61 -39q-25 -26 -41 -61q-29 -72 -29 -158v-211zM389 993h105v211h-43q0 23 4 51q4 29 10 58q14 59 55 82v67q-37 -12 -61 -39q-25 -26 -41 -61q-29 -72 -29 -158v-211z" />
<glyph unicode="&#x201d;" horiz-adv-x="645" d="M125 993q76 31 104 105q27 71 27 153v211h-104v-211h43q0 -45 -11 -104q-6 -27 -20 -49q-15 -25 -39 -37v-68zM383 993q76 31 104 105q27 71 27 153v211h-104v-211h43q0 -45 -11 -104q-6 -27 -20 -49q-14 -25 -39 -37v-68z" />
<glyph unicode="&#x201e;" horiz-adv-x="645" d="M125 -190v-68q76 31 104 104q27 72 27 154v211h-104v-211h43q0 -45 -11 -104q-6 -27 -20 -50q-15 -24 -39 -36zM383 -190v-68q76 31 104 104q27 72 27 154v211h-104v-211h43q0 -45 -11 -104q-6 -27 -20 -50q-14 -24 -39 -36z" />
<glyph unicode="&#x2022;" horiz-adv-x="1024" d="M147 731q2 -156 109 -258q102 -106 256 -108q158 2 260 108q104 102 107 258q-3 158 -107 260q-102 103 -260 105q-154 -2 -256 -105q-107 -102 -109 -260z" />
<glyph unicode="&#x2026;" horiz-adv-x="2048" d="M289 0h104v211h-104v-211zM971 0h104v211h-104v-211zM1653 0h104v211h-104v-211z" />
<glyph unicode="&#x202f;" horiz-adv-x="379" />
<glyph unicode="&#x2039;" horiz-adv-x="530" d="M137 516l234 -268v100l-174 209l174 205v104l-234 -268v-82z" />
<glyph unicode="&#x203a;" horiz-adv-x="530" d="M160 248l233 268v82l-233 268v-104l174 -205l-174 -209v-100z" />
<glyph unicode="&#x205f;" horiz-adv-x="474" />
<glyph unicode="&#x20ac;" d="M25 549l30 67h99q-11 105 0 197h-129l30 68h103q4 56 17 116.5t36.5 118.5t57.5 111t81 94t95.5 64.5t93.5 35t84 14.5t67 3q63 0 130.5 -12t129.5 -50q37 -23 74 -60t61 -97l-43 -78q-10 34 -25 61t-32.5 48t-36.5 37t-37 28q-57 37 -114 46t-107 9q-21 0 -56 -2 t-76.5 -13t-86 -34.5t-86.5 -65.5q-34 -35 -59.5 -80.5t-44 -96t-29 -101.5t-14.5 -96h680l-31 -68h-656q-5 -54 -4 -103t4 -94h580l-31 -67h-540q4 -40 12.5 -83t22 -85.5t32.5 -83t43 -76.5q42 -62 88.5 -97.5t93 -53.5t89.5 -22.5t77 -4.5q47 0 99 8t98 27q40 15 85.5 45 t88.5 80v-94q-28 -26 -62 -49t-79 -40q-53 -21 -117 -33t-123 -12q-131 0 -233 52.5t-170 148.5q-28 39 -50 85t-37.5 94t-25.5 97.5t-14 96.5h-133z" />
<glyph unicode="&#x2122;" horiz-adv-x="2027" d="M174 1395h295v-777h65v777h293v67h-653v-67zM989 618h66v777h6l342 -777h37l342 777h6v-777h65v844h-121l-311 -708l-311 708h-121v-844z" />
<glyph unicode="&#x25fc;" horiz-adv-x="1055" d="M0 0v1055h1055v-1055h-1055z" />
<glyph unicode="&#xfb01;" horiz-adv-x="797" d="M0 985h188v-985h78v985h219v68h-219v211q0 88 47 118q41 29 107 29q47 0 92 -10v67q-45 11 -92 11q-98 0 -162 -48q-70 -51 -70 -161v-217h-188v-68zM586 0h78v1053h-78v-1053zM586 1251h78v211h-78v-211z" />
<glyph unicode="&#xfb02;" horiz-adv-x="797" d="M0 985h188v-985h78v985h219v68h-219v211q0 88 47 118q41 29 107 29q47 0 92 -10v67q-45 11 -92 11q-98 0 -162 -48q-70 -51 -70 -161v-217h-188v-68zM586 0h78v1462h-78v-1462z" />
</font>
</defs>
</svg>
